<svg width="37" height="12" viewBox="0 0 37 12" fill="none" xmlns="http://www.w3.org/2000/svg">
<path d="M1.64375 2.12248C1.64375 1.43593 1.28586 1.48114 0.942683 1.47369V1.27528C1.24009 1.28996 1.54497 1.28996 1.84298 1.28996C2.16342 1.28996 2.59844 1.27528 3.16328 1.27528C5.13886 1.27528 6.21475 2.59532 6.21475 3.94702C6.21475 4.70294 5.77256 6.60324 3.07143 6.60324C2.68248 6.60324 2.32346 6.58824 1.96502 6.58824C1.62185 6.58824 1.28586 6.59576 0.942655 6.60324V6.40512C1.40016 6.35902 1.62185 6.34378 1.64373 5.82458V2.12248H1.64375ZM2.39172 5.70276C2.39172 6.29051 2.81177 6.35905 3.18547 6.35905C4.834 6.35905 5.37526 5.11473 5.37526 3.97726C5.37526 2.55037 4.45944 1.52002 2.98714 1.52002C2.6739 1.52002 2.52995 1.54248 2.39175 1.55057L2.39172 5.70276ZM6.4825 6.40515H6.62703C6.84037 6.40515 6.99327 6.40515 6.99327 6.15257V4.08441C6.99327 3.74896 6.87894 3.70228 6.59654 3.55052V3.42813C6.95498 3.32043 7.38283 3.17644 7.41274 3.15341C7.46658 3.12288 7.51207 3.11482 7.55036 3.11482C7.58811 3.11482 7.60391 3.16089 7.60391 3.22223V6.15257C7.60391 6.40515 7.77176 6.40515 7.98538 6.40515H8.11494V6.60356C7.85522 6.60356 7.58808 6.58833 7.31399 6.58833C7.03934 6.58833 6.76439 6.59581 6.48253 6.60356V6.40515H6.4825ZM7.29871 1.93959C7.10008 1.93959 6.92504 1.75647 6.92504 1.55803C6.92504 1.36682 7.10814 1.19087 7.29871 1.19087C7.4965 1.19087 7.67269 1.35188 7.67269 1.55803C7.67269 1.76422 7.5043 1.93959 7.29871 1.93959ZM8.83982 4.12991C8.83982 3.8477 8.75544 3.77168 8.3976 3.62654V3.48172C8.72552 3.37488 9.03793 3.27553 9.40437 3.11485C9.42714 3.11485 9.44957 3.1304 9.44957 3.19116V3.68759C9.88519 3.37488 10.2592 3.11482 10.771 3.11482C11.4188 3.11482 11.6477 3.58821 11.6477 4.18344V6.1526C11.6477 6.40515 11.8155 6.40515 12.0294 6.40515H12.1668V6.60356C11.899 6.60356 11.6322 6.58833 11.3581 6.58833C11.0831 6.58833 10.8081 6.59581 10.5338 6.60356V6.40515H10.6708C10.885 6.40515 11.0368 6.40515 11.0368 6.1526V4.17624C11.0368 3.74055 10.771 3.52716 10.3354 3.52716C10.0916 3.52716 9.70232 3.7256 9.44954 3.89375V6.15254C9.44954 6.40512 9.61822 6.40512 9.83219 6.40512H9.96923V6.60353C9.70232 6.60353 9.43486 6.58827 9.16023 6.58827C8.88583 6.58827 8.61062 6.59579 8.33622 6.60353V6.40512H8.47384C8.68746 6.40512 8.83976 6.40512 8.83976 6.15254V4.12991H8.83982ZM12.7469 4.49675C12.7311 4.56561 12.7311 4.6799 12.7469 4.93965C12.7919 5.66446 13.2585 6.25973 13.868 6.25973C14.288 6.25973 14.6168 6.03079 14.8987 5.74858L15.0052 5.85571C14.654 6.32106 14.2192 6.71785 13.5939 6.71785C12.3804 6.71785 12.1362 5.54208 12.1362 5.054C12.1362 3.55769 13.1433 3.11479 13.6771 3.11479C14.2955 3.11479 14.9597 3.50387 14.9669 4.31303C14.9669 4.35939 14.9669 4.4046 14.9597 4.45097L14.8906 4.49675H12.7469ZM14.0978 4.2523C14.288 4.2523 14.3105 4.15295 14.3105 4.06166C14.3105 3.6723 14.0741 3.35928 13.6466 3.35928C13.1816 3.35928 12.8612 3.70225 12.7696 4.2523H14.0978ZM15.1426 6.40515H15.3487C15.5617 6.40515 15.7143 6.40515 15.7143 6.15257V4.00807C15.7143 3.77165 15.4325 3.72557 15.3176 3.66452V3.55049C15.8747 3.31349 16.1802 3.11479 16.2495 3.11479C16.2947 3.11479 16.3172 3.13783 16.3172 3.21443V3.90123H16.3333C16.5236 3.60376 16.8447 3.11479 17.3096 3.11479C17.5005 3.11479 17.7444 3.24438 17.7444 3.51939C17.7444 3.72557 17.5998 3.9093 17.3862 3.9093C17.1487 3.9093 17.1487 3.72557 16.8821 3.72557C16.7523 3.72557 16.3253 3.90123 16.3253 4.35939V6.15257C16.3253 6.40512 16.4776 6.40512 16.6915 6.40512H17.1185V6.60356C16.6987 6.59576 16.3794 6.5883 16.0506 6.5883C15.738 6.5883 15.4172 6.59578 15.1426 6.60356V6.40515H15.1426ZM18.0803 5.54208C18.1797 6.04602 18.4846 6.47369 19.0419 6.47369C19.491 6.47369 19.6591 6.19896 19.6591 5.93173C19.6591 5.03096 17.9962 5.32095 17.9962 4.09219C17.9962 3.66455 18.3399 3.11482 19.1789 3.11482C19.4228 3.11482 19.7507 3.18393 20.0481 3.33684L20.1022 4.11468H19.9263C19.8503 3.63431 19.5834 3.35933 19.0946 3.35933C18.7894 3.35933 18.4998 3.53502 18.4998 3.86299C18.4998 4.75685 20.2698 4.48126 20.2698 5.6795C20.2698 6.18315 19.8652 6.71791 18.9572 6.71791C18.6521 6.71791 18.2936 6.61108 18.0267 6.45874L17.9427 5.58075L18.0803 5.54208ZM27.1596 2.65692H26.9693C26.8242 1.76422 26.1908 1.40512 25.3366 1.40512C24.4585 1.40512 23.1843 1.99255 23.1843 3.82435C23.1843 5.36728 24.2837 6.47363 25.4584 6.47363C26.2136 6.47363 26.8397 5.95471 26.9923 5.15303L27.1674 5.19853L26.9923 6.31294C26.6719 6.51193 25.8096 6.71785 25.3055 6.71785C23.5205 6.71785 22.3916 5.56514 22.3916 3.84767C22.3916 2.28285 23.7877 1.16035 25.283 1.16035C25.9009 1.16035 26.496 1.35962 27.0836 1.56581L27.1596 2.65692ZM27.4349 6.40515H27.5794C27.7933 6.40515 27.9465 6.40515 27.9465 6.15257V1.90161C27.9465 1.40515 27.8319 1.38986 27.5417 1.30606V1.18396C27.8469 1.08493 28.1673 0.94725 28.3277 0.855417C28.4109 0.809918 28.4725 0.771301 28.4949 0.771301C28.5416 0.771301 28.5568 0.817405 28.5568 0.878714V6.15257C28.5568 6.40515 28.7244 6.40515 28.9383 6.40515H29.067V6.60356C28.8087 6.60356 28.5416 6.5883 28.2666 6.5883C27.9923 6.5883 27.7176 6.59581 27.4348 6.60356V6.40515H27.4349ZM32.334 6.18313C32.334 6.32106 32.4175 6.32855 32.5471 6.32855C32.6389 6.32855 32.7529 6.32106 32.8525 6.32106V6.48175C32.5241 6.51199 31.8984 6.67238 31.7533 6.71788L31.715 6.69482V6.07715C31.2578 6.45091 30.9063 6.71788 30.3642 6.71788C29.9522 6.71788 29.525 6.45091 29.525 5.81018V3.85545C29.525 3.65704 29.4947 3.46608 29.0681 3.4281V3.28296C29.343 3.27548 29.9522 3.22966 30.0518 3.22966C30.1365 3.22966 30.1365 3.28296 30.1365 3.45085V5.41966C30.1365 5.6492 30.1365 6.30545 30.7998 6.30545C31.0592 6.30545 31.4024 6.10704 31.7225 5.84067V3.7863C31.7225 3.63426 31.3566 3.55046 31.0825 3.47383V3.33647C31.7683 3.29039 32.1964 3.22963 32.2721 3.22963C32.334 3.22963 32.334 3.28291 32.334 3.36728V6.18313H32.334ZM33.8522 3.66455C34.1571 3.40506 34.5691 3.11482 34.9891 3.11482C35.8744 3.11482 36.4079 3.88658 36.4079 4.71791C36.4079 5.71777 35.6758 6.71785 34.584 6.71785C34.0197 6.71785 33.7223 6.53442 33.5237 6.45088L33.2951 6.62596L33.1353 6.54248C33.203 6.0921 33.2418 5.6492 33.2418 5.18385V1.90158C33.2418 1.40515 33.1267 1.38986 32.837 1.30606V1.18396C33.1431 1.08493 33.4626 0.94725 33.623 0.855388C33.7071 0.809889 33.7678 0.771301 33.7914 0.771301C33.8369 0.771301 33.8522 0.817405 33.8522 0.878714V3.66452H33.8522V3.66455ZM33.8522 5.74052C33.8522 6.03079 34.1266 6.51976 34.6379 6.51976C35.4544 6.51976 35.7975 5.71777 35.7975 5.03819C35.7975 4.21402 35.1725 3.52722 34.5772 3.52722C34.2941 3.52722 34.058 3.71066 33.8522 3.88658V5.74052H33.8522ZM0.93396 11.0414H0.992403C1.14154 11.0414 1.29931 11.0213 1.29931 10.805V8.6291C1.29931 8.41252 1.14154 8.3921 0.992403 8.3921H0.93396V8.26741C1.09605 8.26741 1.34508 8.28383 1.54921 8.28383C1.7565 8.28383 2.00524 8.26741 2.20044 8.26741V8.3921H2.142C1.99315 8.3921 1.83512 8.41255 1.83512 8.6291V10.805C1.83512 11.0213 1.99315 11.0414 2.142 11.0414H2.20044V11.1667C2.00121 11.1667 1.7516 11.1503 1.5446 11.1503C1.34108 11.1503 1.09605 11.1667 0.93396 11.1667V11.0414Z" fill="white"/>
<path d="M2.20032 11.1843C1.99965 11.1843 1.75093 11.1676 1.54419 11.1676C1.34122 11.1676 1.09711 11.1843 0.933836 11.1843H0.916016V11.0236H0.992021C1.14256 11.0201 1.27964 11.008 1.28108 10.805V8.62911C1.27964 8.42609 1.14259 8.41253 0.992021 8.40968H0.916016V8.24899H0.933836C1.09711 8.24899 1.34585 8.26541 1.5488 8.26541C1.75551 8.26541 2.004 8.24899 2.20032 8.24899H2.21878V8.40968H2.14216C1.99159 8.41256 1.85366 8.42609 1.85282 8.62911V10.805C1.85366 11.008 1.99156 11.0201 2.14216 11.0236H2.21875V11.1843H2.20032ZM2.18247 11.1488V11.0601H2.14219C1.99392 11.0601 1.81744 11.0345 1.81655 10.805V8.62911C1.81741 8.3996 1.99389 8.37368 2.14219 8.37368H2.18247V8.28557C1.99073 8.28557 1.75033 8.30169 1.5488 8.30169C1.35158 8.30169 1.11291 8.28672 0.952262 8.28557V8.37368H0.991992C1.13997 8.37368 1.31703 8.3996 1.31703 8.62911V10.805C1.31703 11.0345 1.13997 11.0601 0.991992 11.0601H0.952262V11.1488C1.11291 11.1471 1.34752 11.1321 1.54419 11.1321C1.7463 11.1321 1.9867 11.1477 2.18247 11.1488ZM5.05257 10.348L5.06089 10.3399V8.7826C5.06089 8.44164 4.82398 8.39211 4.6996 8.39211H4.60802V8.26739C4.80351 8.26739 4.99439 8.28381 5.1893 8.28381C5.35942 8.28381 5.53046 8.26739 5.70033 8.26739V8.39211H5.63814C5.46338 8.39211 5.26818 8.4252 5.26818 8.91938V10.8096C5.26818 10.9548 5.27247 11.0999 5.29291 11.2286H5.13488L2.99721 8.84454V10.5559C2.99721 10.9173 3.06717 11.0414 3.38731 11.0414H3.45753V11.1667C3.27935 11.1667 3.10111 11.1503 2.92232 11.1503C2.73605 11.1503 2.54491 11.1667 2.35777 11.1667V11.0414H2.41593C2.70239 11.0414 2.78937 10.8467 2.78937 10.5148V8.76535C2.78937 8.53296 2.59791 8.39214 2.41193 8.39214H2.3578V8.26745C2.51555 8.26745 2.67738 8.28384 2.83486 8.28384C2.95949 8.28384 3.08015 8.26745 3.2045 8.26745L5.05257 10.348Z" fill="white"/>
<path d="M5.29325 11.2468L5.12198 11.2404L3.01508 8.89145V10.5559C3.01997 10.917 3.07496 11.0196 3.38762 11.0236H3.47658V11.1843H3.45816C3.27851 11.1843 3.09972 11.1676 2.92263 11.1676C2.73665 11.1676 2.54605 11.1843 2.35777 11.1843H2.33963V11.0236H2.41621C2.69058 11.0221 2.76889 10.8459 2.77206 10.5147V8.76561C2.77145 8.54445 2.5901 8.41026 2.41218 8.40968H2.3396V8.24957H2.35774C2.5164 8.24957 2.67904 8.26541 2.83479 8.26541C2.9583 8.26541 3.07867 8.24957 3.21857 8.25562L5.04329 10.3103V8.78292C5.04099 8.45233 4.82077 8.41259 4.69983 8.40968H4.58985V8.24957H4.60827C4.80436 8.24957 4.9955 8.26541 5.18955 8.26541C5.35855 8.26541 5.5287 8.24957 5.70029 8.24957H5.71843V8.40965H5.63839C5.46709 8.41458 5.29118 8.42952 5.28631 8.91936V10.8093C5.28631 10.9544 5.2906 11.0996 5.31079 11.2254L5.31482 11.2467H5.29325V11.2468ZM5.13551 11.2102H5.27284C5.25416 11.0855 5.25096 10.9472 5.25096 10.8093V8.91936C5.25096 8.42088 5.45969 8.37368 5.63848 8.37368H5.68224V8.28554C5.51871 8.28669 5.3546 8.30166 5.18966 8.30166C4.99965 8.30166 4.81482 8.28669 4.62681 8.28554L4.62653 8.37368H4.69994C4.82748 8.37368 5.0794 8.43067 5.0794 8.78289L5.07364 10.3523L5.06529 10.361L5.05121 10.3739L3.20486 8.28554C3.08167 8.28554 2.9613 8.30166 2.83491 8.30166C2.68261 8.30166 2.52685 8.28669 2.37628 8.28554L2.37541 8.37365H2.41227C2.60718 8.37365 2.80727 8.52253 2.80727 8.76558V10.5147C2.80727 10.8467 2.71485 11.0592 2.4163 11.0604L2.37628 11.0592V11.1488C2.55622 11.1471 2.74105 11.1321 2.92269 11.1321C3.09604 11.1321 3.26849 11.1471 3.44005 11.1488V11.0604H3.38768C3.06088 11.0592 2.97972 10.917 2.97941 10.5559V8.79781L5.13551 11.2102ZM5.05285 10.3477L5.0661 10.3356L5.05285 10.3477ZM5.04335 10.3397V10.3382L5.0399 10.3353L5.04335 10.3397ZM6.32224 8.47473C6.01045 8.47473 5.99864 8.54963 5.93646 8.85255H5.81179C5.8282 8.7365 5.84893 8.62044 5.8616 8.4995C5.87827 8.38316 5.88633 8.26737 5.88633 8.14702H5.98623C6.01963 8.27171 6.1233 8.26739 6.23587 8.26739H8.37758C8.48984 8.26739 8.59351 8.26336 8.60215 8.13841L8.70116 8.15511C8.68504 8.26739 8.66834 8.37944 8.65567 8.49172C8.64818 8.60377 8.64818 8.71605 8.64818 8.82778L8.52323 8.87415C8.5146 8.72066 8.49387 8.47473 8.21604 8.47473H7.53515V10.6846C7.53515 11.0048 7.68057 11.0414 7.8792 11.0414H7.95837V11.1667C7.79657 11.1667 7.50553 11.1503 7.2818 11.1503C7.03279 11.1503 6.74169 11.1667 6.5796 11.1667V11.0414H6.65878C6.88766 11.0414 7.00339 11.021 7.00339 10.6932V8.47473H6.32224Z" fill="white"/>
<path d="M7.95981 11.1843C7.79625 11.1843 7.50576 11.1676 7.28263 11.1676C7.03388 11.1676 6.74342 11.1843 6.58044 11.1843H6.56316V11.0236H6.65961C6.88849 11.0181 6.98059 11.0152 6.9858 10.6932V8.49291H6.32305V8.45631H7.02182V10.6932C7.02182 11.0264 6.88766 11.0601 6.65964 11.0604H6.5986V11.148C6.76242 11.1471 7.04168 11.1321 7.28266 11.1321C7.49919 11.1321 7.7767 11.1471 7.9408 11.148V11.0604H7.88006C7.67939 11.0601 7.51788 11.0109 7.51788 10.6846V8.45631H8.2169C8.49559 8.45746 8.53187 8.69446 8.54108 8.84852L8.63062 8.81541C8.63062 8.70713 8.6312 8.59856 8.63868 8.48914C8.65077 8.3823 8.66603 8.27633 8.68158 8.17036L8.61821 8.1597C8.59895 8.28065 8.48232 8.28669 8.37781 8.28554H6.21509C6.11749 8.28554 6.01068 8.28093 5.97354 8.16491H5.90502C5.90459 8.27764 5.8964 8.3902 5.88051 8.50181C5.86842 8.61587 5.84942 8.72559 5.83387 8.8353H5.92287C5.97754 8.54587 6.01327 8.45199 6.32302 8.45634V8.49291C6.01612 8.49838 6.02248 8.55021 5.95479 8.85719L5.95166 8.8713H5.79187L5.79417 8.8497C5.81087 8.73336 5.83192 8.61757 5.84427 8.49662C5.86154 8.38144 5.8696 8.26625 5.8696 8.14703V8.12889H6.00118L6.00405 8.14185C6.03256 8.24667 6.10943 8.24724 6.21509 8.24897H8.37781C8.49358 8.24724 8.57762 8.24551 8.58482 8.13692L8.58654 8.11734L8.60525 8.12137L8.72243 8.13983L8.71981 8.15797C8.70311 8.26913 8.68673 8.38144 8.67464 8.49288C8.66629 8.60346 8.66629 8.71577 8.66629 8.82779V8.84075L8.65478 8.84535L8.50766 8.89889L8.50653 8.8747C8.49557 8.71862 8.47915 8.49285 8.21687 8.49285H7.55412V10.6846C7.55787 10.9979 7.68221 11.0195 7.88 11.0235H7.97731V11.1842L7.95981 11.1843ZM8.83474 11.0414H8.89319C9.04235 11.0414 9.20035 11.0213 9.20035 10.805V8.62909C9.20035 8.41251 9.04235 8.39209 8.89319 8.39209H8.83474V8.2674C9.08752 8.2674 9.51998 8.28382 9.868 8.28382C10.2175 8.28382 10.6485 8.2674 10.9306 8.2674C10.9238 8.44565 10.9275 8.72038 10.9399 8.90269L10.8146 8.93606C10.7948 8.66627 10.7449 8.45058 10.3088 8.45058H9.73214V9.53824H10.2256C10.4746 9.53824 10.5291 9.39742 10.5535 9.17254H10.6779C10.6699 9.33522 10.6655 9.49708 10.6655 9.65892C10.6655 9.81702 10.6698 9.97454 10.6779 10.1323L10.5535 10.1571C10.5291 9.90802 10.5164 9.74615 10.2296 9.74615H9.73216V10.7134C9.73216 10.9838 9.97199 10.9838 10.238 10.9838C10.7363 10.9838 10.956 10.9501 11.0807 10.4773L11.197 10.5058C11.1426 10.7264 11.0931 10.9461 11.0562 11.1667C10.7902 11.1667 10.3126 11.1503 9.93942 11.1503C9.56515 11.1503 9.07146 11.1667 8.83474 11.1667V11.0414Z" fill="white"/>
<path d="M11.0558 11.1843C10.7892 11.1843 10.3119 11.1673 9.9391 11.1673C9.56511 11.1673 9.07162 11.1843 8.83467 11.1843H8.81714V11.0236H8.89286C9.0434 11.0213 9.17987 11.008 9.18191 10.805V8.6291C9.1799 8.42637 9.0434 8.41284 8.89286 8.40967H8.81714V8.24959H8.83467C9.08803 8.24959 9.51988 8.26543 9.86795 8.26543C10.2172 8.26543 10.6479 8.24959 10.9306 8.24959H10.9493L10.9484 8.26802C10.9455 8.33051 10.9444 8.4042 10.9444 8.48255C10.9444 8.62622 10.9484 8.78317 10.9568 8.90155L10.9574 8.91652L10.9436 8.92058L10.7976 8.9586L10.7968 8.93729C10.7723 8.66775 10.7363 8.47222 10.3088 8.46819H9.7494L9.74879 9.51956H10.2256C10.4646 9.51726 10.5074 9.39487 10.5357 9.17112L10.5371 9.1547H10.6963L10.696 9.17339C10.688 9.33523 10.6828 9.49707 10.6828 9.65891C10.6828 9.81614 10.688 9.97366 10.696 10.1318L10.6963 10.1465L10.6814 10.1499L10.5371 10.1787L10.5357 10.1591C10.5072 9.9057 10.5051 9.7669 10.2293 9.76376L9.74937 9.76344V10.7134C9.74971 10.9657 9.96731 10.9643 10.238 10.9657C10.7377 10.9628 10.9381 10.9387 11.0634 10.4721L11.0674 10.4554L11.085 10.4586L11.218 10.4928L11.214 10.5101C11.1604 10.7302 11.1106 10.9496 11.0734 11.1696L11.07 11.1843H11.0558ZM11.0406 11.148C11.0766 10.9386 11.124 10.7284 11.1751 10.5193L11.093 10.4986C10.9686 10.9634 10.7279 11.0048 10.2379 11.0017C9.97649 11.0017 9.7145 11.0017 9.71332 10.7134V9.72799H10.2293C10.5192 9.72482 10.5489 9.89991 10.5693 10.1363L10.6591 10.1176C10.6512 9.96485 10.6472 9.81188 10.6473 9.65888C10.6473 9.50251 10.651 9.34704 10.6591 9.19064H10.5693C10.5463 9.40691 10.4786 9.55895 10.2256 9.55607H9.71335V8.43184H10.3088C10.7406 8.42894 10.8123 8.65185 10.8307 8.91304L10.9203 8.88885C10.9131 8.77165 10.9081 8.62133 10.9081 8.48253C10.9081 8.4114 10.9099 8.3443 10.9122 8.28556C10.6301 8.28671 10.2097 8.30168 9.86798 8.30168C9.52682 8.30168 9.1068 8.28671 8.85255 8.28556V8.37367H8.89283C9.04081 8.37367 9.21761 8.39959 9.21816 8.6291V10.805C9.21758 11.034 9.04081 11.0593 8.89283 11.0605H8.85255V11.148C9.09471 11.1477 9.57435 11.1322 9.93907 11.1322C10.3053 11.1322 10.7728 11.1477 11.0406 11.148ZM11.7573 8.70743C11.7573 8.40449 11.5915 8.3921 11.4622 8.3921H11.3876V8.26713C11.5206 8.26713 11.7777 8.28383 12.0311 8.28383C12.2801 8.28383 12.4796 8.26713 12.6993 8.26713C13.2221 8.26713 13.6877 8.40852 13.6877 8.99885C13.6877 9.37177 13.4387 9.60042 13.1107 9.72972L13.8204 10.7923C13.9367 10.968 14.0193 11.0172 14.2232 11.0414V11.1667C14.0861 11.1667 13.9531 11.1503 13.8163 11.1503C13.6877 11.1503 13.5543 11.1667 13.4262 11.1667C13.1066 10.7471 12.832 10.2985 12.5622 9.82043H12.289V10.7097C12.289 11.0299 12.4379 11.0414 12.6287 11.0414H12.7036V11.1667C12.4664 11.1667 12.2266 11.1503 11.9896 11.1503C11.7901 11.1503 11.5949 11.1667 11.3876 11.1667V11.0414H11.4622C11.6165 11.0414 11.7573 10.9717 11.7573 10.8177V8.70743ZM12.289 9.67097H12.4917C12.9071 9.67097 13.1308 9.5132 13.1308 9.02304C13.1308 8.65387 12.8945 8.41687 12.5245 8.41687C12.3999 8.41687 12.3469 8.42983 12.289 8.43357V9.67097H12.289Z" fill="white"/>
<path d="M14.2231 11.1843C14.0841 11.1843 13.9519 11.1676 13.8155 11.1676C13.6888 11.1676 13.5563 11.1843 13.4116 11.1774C13.0931 10.7595 12.8202 10.3135 12.5519 9.83889H12.3066V10.7092C12.3109 11.0216 12.4364 11.019 12.6284 11.0236H12.7214V11.1843H12.703C12.4657 11.1843 12.2248 11.1676 11.989 11.1676C11.7906 11.1676 11.596 11.1843 11.3876 11.1843H11.3694V11.0236H11.4621C11.6118 11.0228 11.7379 10.9577 11.7385 10.8177V8.70751C11.7354 8.41263 11.5911 8.41433 11.4621 8.41004H11.3694V8.24907H11.3876C11.522 8.24907 11.7782 8.26545 12.031 8.26545C12.2789 8.26545 12.4784 8.24907 12.6996 8.24907C13.2227 8.25022 13.7046 8.39478 13.706 8.99779C13.706 9.37301 13.4582 9.6071 13.1377 9.73787L13.8353 10.7826C13.9513 10.9548 14.0236 10.9977 14.2257 11.0236L14.2409 11.0259V11.1843H14.2231V11.1843ZM12.2885 9.80257H12.5723L12.5772 9.81179C12.8478 10.289 13.1204 10.737 13.4262 11.1488C13.5529 11.1488 13.6862 11.1318 13.8155 11.1318C13.9482 11.1318 14.076 11.1462 14.2053 11.1483V11.0573C14.0103 11.0331 13.9191 10.9749 13.8057 10.8024L13.0833 9.72105L13.1037 9.7127C13.4285 9.58487 13.6689 9.36285 13.6692 8.99767C13.6689 8.42145 13.2215 8.28786 12.6996 8.28555C12.4804 8.28555 12.2812 8.30197 12.031 8.30197C11.7872 8.30197 11.541 8.28671 11.4051 8.28555V8.37367H11.4621C11.5911 8.37399 11.7748 8.39527 11.7748 8.70746V10.8177C11.7748 10.9844 11.6184 11.0604 11.4621 11.0607H11.4051V11.1482C11.6049 11.1476 11.7941 11.1318 11.989 11.1318C12.2213 11.1318 12.4554 11.1477 12.6852 11.1482V11.0607H12.6284C12.439 11.0604 12.2703 11.0368 12.2703 10.7091V9.80257H12.2884H12.2885ZM12.2885 9.68854H12.2703V8.41687L12.2861 8.41543C12.3428 8.41114 12.399 8.3993 12.5245 8.3993C12.9028 8.3993 13.1487 8.64523 13.1492 9.02388C13.1481 9.51976 12.9103 9.68822 12.4917 9.68851H12.2885V9.68854ZM12.4917 9.65286C12.9028 9.64937 13.1095 9.50657 13.1138 9.02391C13.1115 8.66107 12.8861 8.43587 12.5245 8.43443C12.4122 8.43443 12.3595 8.4448 12.3065 8.44944V9.65286H12.4917ZM17.042 10.348L17.0495 10.3399V8.78259C17.0495 8.44163 16.8131 8.3921 16.6888 8.3921H16.5978V8.26738C16.7927 8.26738 16.9833 8.2838 17.1788 8.2838C17.3492 8.2838 17.5188 8.26738 17.6901 8.26738V8.3921H17.6276C17.4532 8.3921 17.2579 8.42519 17.2579 8.91937V10.8096C17.2579 10.9548 17.262 11.0999 17.2824 11.2286H17.125L14.987 8.84453V10.5559C14.987 10.9173 15.0575 11.0414 15.3771 11.0414H15.4476V11.1667C15.2694 11.1667 15.0906 11.1503 14.9124 11.1503C14.7249 11.1503 14.5341 11.1667 14.3475 11.1667V11.0414H14.4051C14.6919 11.0414 14.7791 10.8467 14.7791 10.5147V8.76534C14.7791 8.53295 14.5882 8.39213 14.4017 8.39213H14.3475V8.26744C14.5048 8.26744 14.6674 8.28383 14.8249 8.28383C14.9487 8.28383 15.0696 8.26744 15.1943 8.26744L17.042 10.348Z" fill="white"/>
<path d="M17.2824 11.2465L17.1115 11.2407L15.0043 8.89148V10.5557C15.0092 10.9171 15.0639 11.0195 15.3771 11.0236H15.465V11.1843H15.4468C15.2672 11.1843 15.0892 11.1673 14.9113 11.1673C14.7259 11.1673 14.5342 11.1843 14.3473 11.1843H14.3286V11.0236H14.4049C14.679 11.0225 14.7576 10.8459 14.7602 10.5136V8.76535C14.7599 8.54416 14.5788 8.41 14.4015 8.40968H14.3286V8.24902H14.3473C14.5057 8.24902 14.6681 8.26541 14.8247 8.26541C14.9467 8.26541 15.0671 8.24902 15.2064 8.25475L17.0315 10.3103V8.78231C17.0303 8.4523 16.8092 8.41141 16.6886 8.40971H16.5788V8.24902H16.597C16.7934 8.24902 16.9845 8.26541 17.1785 8.26541C17.3479 8.26541 17.518 8.24902 17.689 8.24902H17.7071V8.40971H17.6274C17.4561 8.41432 17.2796 8.42955 17.2753 8.91941V10.8093C17.2753 10.9545 17.279 11.0985 17.3 11.2263L17.3023 11.2465H17.2824ZM17.1247 11.2102H17.2612C17.243 11.0855 17.239 10.9473 17.239 10.8093V8.91939C17.2393 8.42088 17.4495 8.37483 17.6274 8.3734H17.6708V8.28556C17.5079 8.28672 17.3435 8.30169 17.1785 8.30169C16.988 8.30169 16.8028 8.28672 16.6148 8.28556V8.3734H16.6885C16.8163 8.37483 17.068 8.4307 17.068 8.78231L17.0623 10.3523L17.0542 10.361L17.0415 10.3742L15.1938 8.28559C15.0705 8.28559 14.9502 8.30172 14.8247 8.30172C14.671 8.30172 14.5158 8.28674 14.3646 8.28559V8.37342H14.4014C14.5964 8.37486 14.7965 8.52202 14.7965 8.76535V10.5136C14.7965 10.8471 14.7026 11.0593 14.4049 11.0604L14.3646 11.0602V11.148C14.544 11.1471 14.7291 11.1321 14.9114 11.1321C15.0856 11.1321 15.258 11.1471 15.4296 11.148V11.0604H15.3772C15.0501 11.0602 14.9684 10.9171 14.9678 10.5556V8.79844L17.1247 11.2102ZM17.0418 10.3477L17.0544 10.3359L17.0418 10.3477ZM17.0314 10.3399V10.3385L17.0282 10.3353L17.0314 10.3399ZM18.3576 10.5726C18.3156 10.7134 18.2655 10.8223 18.2655 10.8963C18.2655 11.0213 18.4402 11.0414 18.5767 11.0414H18.623V11.1667C18.4567 11.1577 18.287 11.1503 18.1198 11.1503C17.9704 11.1503 17.8218 11.1578 17.6721 11.1667V11.0414H17.6971C17.8589 11.0414 17.9963 10.9461 18.0576 10.7713L18.7226 8.86551C18.7762 8.71173 18.8516 8.5041 18.8767 8.35007C19.0089 8.30486 19.1753 8.22192 19.2539 8.17182C19.2668 8.16753 19.274 8.16318 19.287 8.16318C19.2994 8.16318 19.3074 8.16318 19.3166 8.17614C19.3287 8.20896 19.3408 8.24669 19.3541 8.2798L20.1178 10.4522C20.1676 10.5974 20.2168 10.7509 20.2707 10.8759C20.3208 10.9922 20.4083 11.0414 20.5457 11.0414H20.5701V11.1667C20.3833 11.1578 20.1962 11.1503 19.9975 11.1503C19.794 11.1503 19.5858 11.1578 19.3742 11.1667V11.0414H19.4203C19.5153 11.0414 19.6777 11.0253 19.6777 10.9214C19.6777 10.8675 19.6402 10.7555 19.5939 10.6222L19.4324 10.1404H18.4901L18.3576 10.5726ZM18.9633 8.73249H18.955L18.5689 9.90799H19.3448L18.9633 8.73249Z" fill="white"/>
<path d="M20.5679 11.1843C20.3811 11.1759 20.1942 11.1672 19.9965 11.1672C19.7929 11.1672 19.5862 11.1759 19.3737 11.1843L19.355 11.1854V11.023H19.4189C19.5151 11.023 19.6579 11.0011 19.6579 10.9214C19.659 10.8741 19.6216 10.7601 19.5758 10.6279L19.4177 10.1583H18.502L18.373 10.5778C18.3309 10.7195 18.2812 10.8292 18.2814 10.8969C18.2828 10.9983 18.438 11.023 18.5756 11.023H18.6396V11.1854L18.6209 11.1843C18.4547 11.1759 18.2852 11.1672 18.1196 11.1672C17.9708 11.1672 17.8211 11.1759 17.6722 11.1843L17.653 11.1854V11.023H17.6959C17.8504 11.0224 17.9794 10.9346 18.0393 10.7656L18.7041 8.85952C18.7585 8.70545 18.8334 8.4984 18.8693 8.33282C18.9995 8.28876 19.1661 8.20525 19.2462 8.15457C19.2577 8.15082 19.2693 8.14506 19.2863 8.14506C19.2963 8.14478 19.3188 8.14737 19.332 8.16928C19.3438 8.20352 19.3568 8.24041 19.3694 8.2741L20.1341 10.4463C20.1831 10.592 20.2326 10.7455 20.2867 10.8681C20.3348 10.979 20.4111 11.0225 20.5447 11.0231H20.587V11.1855L20.5679 11.1843ZM19.3913 11.1471C19.5968 11.1399 19.7981 11.1319 19.9965 11.1319C20.1893 11.1319 20.3698 11.1399 20.5503 11.1471V11.0604H20.5446C20.4024 11.0613 20.3042 11.0054 20.2532 10.8831C20.1991 10.7569 20.1484 10.6029 20.0998 10.4574L19.3354 8.28556C19.3228 8.25245 19.3107 8.21472 19.2997 8.18535C19.2963 8.18132 19.2971 8.18132 19.2937 8.18132H19.2861C19.2775 8.18132 19.2726 8.18391 19.262 8.18679C19.182 8.23891 19.0153 8.32041 18.8923 8.35295C18.8667 8.51018 18.7921 8.71752 18.738 8.87129L18.0735 10.7777C18.0102 10.9579 17.8648 11.0607 17.6958 11.0604H17.6892V11.1471C17.8314 11.1399 17.9753 11.1319 18.1196 11.1319C18.2799 11.1319 18.4441 11.1399 18.6024 11.1471V11.0604H18.5756C18.4406 11.0587 18.2517 11.0434 18.2466 10.8968C18.2468 10.8139 18.2978 10.7077 18.3384 10.5674L18.3565 10.5729L18.3384 10.5668L18.4751 10.1228H19.4431L19.6097 10.6164C19.6564 10.7497 19.6941 10.8603 19.6941 10.9214C19.6884 11.0489 19.513 11.0578 19.4189 11.0604H19.3912V11.1471H19.3913ZM18.5425 9.92581L18.9401 8.71432H18.9626V8.73247L18.958 8.73333L18.9626 8.73247V8.71432H18.975L19.3691 9.92581H18.5425ZM18.5923 9.88982H19.319L18.9576 8.77681L18.5923 9.88982ZM18.9444 8.73768L18.9539 8.73451L18.9444 8.73768ZM20.7517 8.47473C20.4401 8.47473 20.4278 8.54963 20.3652 8.85255H20.2406C20.257 8.7365 20.278 8.62045 20.291 8.4995C20.3076 8.38316 20.3152 8.26737 20.3152 8.14702H20.4154C20.4485 8.27171 20.5527 8.26739 20.6641 8.26739H22.807C22.9184 8.26739 23.0221 8.26336 23.0307 8.13841L23.13 8.15511C23.1142 8.26739 23.0978 8.37944 23.0851 8.49172C23.0762 8.60377 23.0762 8.71605 23.0762 8.82778L22.9518 8.87415C22.944 8.72066 22.9233 8.47473 22.6449 8.47473H21.964V10.6846C21.964 11.0048 22.1097 11.0414 22.3084 11.0414H22.3872V11.1667C22.2254 11.1667 21.9352 11.1503 21.7106 11.1503C21.4619 11.1503 21.1708 11.1667 21.009 11.1667V11.0414H21.0876C21.3165 11.0414 21.4328 11.021 21.4328 10.6933V8.47473H20.7517Z" fill="white"/>
<path d="M22.3873 11.1843C22.2244 11.1843 21.9336 11.1676 21.7107 11.1676C21.4625 11.1676 21.1718 11.1843 21.0091 11.1843H20.9907V11.0236H21.0877C21.3165 11.0181 21.4084 11.0153 21.4142 10.6933L21.4136 8.49293H20.7517V8.45633H21.4502V10.6933C21.4502 11.0265 21.3157 11.0593 21.0877 11.0601H21.0267V11.1488C21.191 11.1471 21.4697 11.1321 21.7107 11.1321C21.9275 11.1321 22.2051 11.1471 22.3691 11.1488V11.0601H22.3078C22.1083 11.0593 21.9465 11.0112 21.946 10.6846V8.45633H22.645C22.9236 8.45748 22.9602 8.69448 22.968 8.84854L23.0587 8.81543C23.0587 8.70715 23.059 8.59858 23.067 8.48973C23.0785 8.38289 23.0941 8.27635 23.1094 8.17034L23.0466 8.15969C23.0276 8.28064 22.9104 8.28729 22.8071 8.28553H20.6432C20.5453 8.28668 20.4393 8.28092 20.4016 8.1643H20.3337C20.3325 8.27948 20.3247 8.39125 20.3083 8.50183C20.2974 8.61615 20.2769 8.72615 20.2614 8.8353H20.3504C20.4054 8.54586 20.4413 8.45198 20.7517 8.45633V8.4929C20.4439 8.49811 20.4508 8.5502 20.3828 8.85718L20.3797 8.87129H20.2196L20.2222 8.85053C20.2395 8.73335 20.2602 8.61756 20.2723 8.49748C20.2893 8.38143 20.2974 8.26624 20.2974 8.14702V8.12888H20.4286L20.4321 8.14184C20.4612 8.24666 20.5368 8.24723 20.6431 8.24896L20.6641 8.24954H22.807C22.9216 8.24726 23.0054 8.2455 23.0126 8.13726L23.0137 8.11739L23.0333 8.12145L23.1511 8.13988L23.1479 8.15802C23.1309 8.26918 23.1151 8.38148 23.1024 8.49293C23.0941 8.60351 23.0941 8.7161 23.0941 8.82784V8.84079L23.0823 8.8454L22.9352 8.89897L22.9343 8.87475C22.9236 8.7187 22.9072 8.4929 22.645 8.4929H21.9819V10.6846C21.9863 10.9979 22.1103 11.0195 22.3078 11.0236H22.4051V11.1843L22.3873 11.1843ZM23.2834 11.0414H23.3416C23.4916 11.0414 23.6484 11.0213 23.6484 10.805V8.62911C23.6484 8.41253 23.4916 8.39211 23.3416 8.39211H23.2834V8.26742C23.4455 8.26742 23.6943 8.28383 23.8972 8.28383C24.1057 8.28383 24.3547 8.26742 24.5499 8.26742V8.39211H24.4917C24.3423 8.39211 24.184 8.41256 24.184 8.62911V10.805C24.184 11.0213 24.3423 11.0414 24.4917 11.0414H24.5499V11.1667C24.3504 11.1667 24.1011 11.1503 23.8941 11.1503C23.6902 11.1503 23.4455 11.1667 23.2834 11.1667V11.0414Z" fill="white"/>
<path d="M24.5496 11.1843C24.349 11.1843 24.1005 11.1673 23.8935 11.1673C23.6905 11.1673 23.4452 11.1843 23.2831 11.1843H23.265V11.0236H23.3413C23.4913 11.0213 23.6289 11.0083 23.6295 10.805V8.62912C23.6289 8.42639 23.4913 8.41254 23.3413 8.40969H23.265V8.24961H23.2831C23.4452 8.24961 23.6946 8.26545 23.8969 8.26545C24.104 8.26545 24.353 8.24961 24.5496 8.24961H24.5672V8.40969H24.4915C24.3397 8.41257 24.2036 8.42639 24.2015 8.62912V10.805C24.2036 11.0083 24.3398 11.0213 24.4915 11.0236H24.5672V11.1843H24.5496ZM24.5309 11.148V11.0602H24.4915C24.3426 11.0602 24.1664 11.034 24.1664 10.805V8.62912C24.1664 8.39961 24.3426 8.37369 24.4915 8.37369H24.5309V8.28557C24.3392 8.28673 24.0994 8.3017 23.8969 8.3017C23.7003 8.3017 23.4622 8.28673 23.3013 8.28557V8.37369H23.3413C23.489 8.37369 23.6658 8.39961 23.6664 8.62912V10.805C23.6658 11.0339 23.489 11.0602 23.3413 11.0602H23.3013V11.148C23.4614 11.1463 23.6963 11.1321 23.8935 11.1321C24.0948 11.1321 24.3352 11.1471 24.5309 11.148H24.5309ZM26.2052 8.20523C27.0902 8.20523 27.7956 8.7541 27.7956 9.63845C27.7956 10.594 27.1106 11.2289 26.2268 11.2289C25.3458 11.2289 24.6739 10.6308 24.6739 9.7378C24.6739 8.87418 25.3418 8.20523 26.2052 8.20523ZM26.268 11.046C27.0735 11.046 27.2137 10.3353 27.2137 9.72974C27.2137 9.1227 26.8867 8.3878 26.1972 8.3878C25.4705 8.3878 25.2549 9.03573 25.2549 9.5918C25.2549 10.3353 25.5952 11.046 26.268 11.046Z" fill="white"/>
<path d="M24.6554 9.73779C24.6572 8.86409 25.3332 8.18822 26.2052 8.18707V8.22275C25.3519 8.22275 24.6914 8.88309 24.6906 9.73776C24.6926 10.6207 25.355 11.2099 26.2268 11.2101C27.102 11.2099 27.7772 10.5838 27.7786 9.63757C27.7777 8.76445 27.083 8.2239 26.2052 8.22275V8.18707C27.0971 8.18765 27.812 8.74199 27.8137 9.63757C27.8129 10.6031 27.119 11.2447 26.2268 11.2464C25.3389 11.2447 24.6572 10.6405 24.6555 9.73776H24.6554V9.73779ZM25.237 9.59179C25.2381 9.03315 25.4564 8.36907 26.1974 8.36907C26.9022 8.37083 27.2313 9.11955 27.2324 9.72972C27.2313 10.3353 27.0888 11.0633 26.2683 11.0633V11.0282C27.0577 11.0271 27.1945 10.3353 27.1964 9.72972C27.1964 9.12761 26.8722 8.40682 26.1974 8.40593C25.4852 8.40679 25.2744 9.0386 25.273 9.59179C25.2736 10.3316 25.6107 11.0264 26.2683 11.0282V11.0633C25.579 11.0624 25.2381 10.3397 25.237 9.59179ZM30.5936 10.348L30.6019 10.3399V8.78259C30.6019 8.44164 30.3647 8.39211 30.2401 8.39211H30.1502V8.26739C30.3448 8.26739 30.5357 8.2838 30.7303 8.2838C30.9011 8.2838 31.0712 8.26739 31.2416 8.26739V8.39211H31.1789C31.005 8.39211 30.8095 8.42519 30.8095 8.91938V10.8096C30.8095 10.9548 30.8136 11.0999 30.8346 11.2286H30.6771L28.5385 8.84453V10.5559C28.5385 10.9173 28.6088 11.0415 28.9283 11.0415H28.9994V11.1667C28.8207 11.1667 28.6425 11.1503 28.4639 11.1503C28.2771 11.1503 28.0856 11.1667 27.8988 11.1667V11.0415H27.9572C28.2443 11.0415 28.3304 10.8468 28.3304 10.5148V8.76534C28.3304 8.53295 28.1403 8.39214 27.9529 8.39214H27.8988V8.26745C28.0565 8.26745 28.2186 8.28383 28.3761 8.28383C28.5008 8.28383 28.6209 8.26745 28.7458 8.26745L30.5936 10.348Z" fill="white"/>
<path d="M30.8343 11.2464L30.6624 11.2404L28.5558 8.89145V10.5559C28.5604 10.917 28.6154 11.0193 28.9272 11.023H29.017V11.1843H28.9989C28.8189 11.1843 28.6407 11.1676 28.4634 11.1676C28.2771 11.1676 28.0865 11.1843 27.8979 11.1843H27.8806V11.023H27.9566C28.2304 11.0222 28.309 10.8459 28.3125 10.5147V8.76535C28.3119 8.54419 28.1308 8.40999 27.9523 8.40971H27.8806V8.2496H27.8979C28.0571 8.2496 28.2189 8.26546 28.3755 8.26546C28.4988 8.26546 28.6185 8.2496 28.759 8.25567L30.5832 10.3103V8.78294C30.582 8.45238 30.3609 8.41261 30.2394 8.40973H30.1303V8.24965H30.149C30.3445 8.24965 30.5359 8.26549 30.7291 8.26549C30.8995 8.26549 31.0688 8.24965 31.241 8.24965H31.2588V8.40973H31.1782C31.0075 8.41463 30.8307 8.43018 30.8273 8.91944V10.8094C30.8273 10.9545 30.8304 11.0993 30.8506 11.2263L30.854 11.2465H30.8343V11.2464ZM30.6765 11.2102H30.8124C30.7943 11.0855 30.7911 10.9472 30.7911 10.8093V8.91938C30.7911 8.42004 31.0004 8.37483 31.1784 8.37339H31.2232V8.28556C31.0595 8.28672 30.8954 8.30169 30.7293 8.30169C30.5404 8.30169 30.3546 8.28672 30.1667 8.28556V8.37339H30.2395C30.3682 8.37483 30.6187 8.43159 30.6187 8.78288L30.6141 10.3523L30.6063 10.361L30.5931 10.3742L28.7453 8.28559C28.623 8.28559 28.5017 8.30172 28.3757 8.30172C28.2228 8.30172 28.067 8.28674 27.9159 8.28559V8.37342H27.9524C28.1474 8.37486 28.348 8.52201 28.348 8.76535V10.5147C28.348 10.8468 28.2553 11.0593 27.9567 11.0604L27.9159 11.0601V11.148C28.0961 11.1471 28.2809 11.1321 28.4634 11.1321C28.6365 11.1321 28.8084 11.1471 28.9808 11.148V11.0604H28.9273C28.6014 11.0601 28.5199 10.917 28.5199 10.5559V8.79786L30.6765 11.2102ZM30.593 10.3477L30.6062 10.3359L30.593 10.3477ZM30.5832 10.3399V10.3385L30.5798 10.3353L30.5832 10.3399ZM31.9082 10.5726C31.8676 10.7134 31.8172 10.8223 31.8172 10.8963C31.8172 11.0213 31.992 11.0414 32.1282 11.0414H32.1745V11.1667C32.0084 11.1577 31.838 11.1503 31.6719 11.1503C31.5219 11.1503 31.373 11.1578 31.2242 11.1667V11.0414H31.2478C31.4104 11.0414 31.5481 10.9461 31.6094 10.7713L32.2745 8.8655C32.328 8.71173 32.4031 8.5041 32.4274 8.35007C32.5603 8.30486 32.7262 8.22192 32.8059 8.17182C32.8177 8.16753 32.8261 8.16318 32.8387 8.16318C32.8511 8.16318 32.8589 8.16318 32.8673 8.17614C32.8799 8.20896 32.8929 8.24669 32.9053 8.2798L33.6688 10.4522C33.7186 10.5974 33.7681 10.7509 33.8228 10.8758C33.8726 10.9922 33.9601 11.0414 34.0966 11.0414H34.122V11.1667C33.9348 11.1577 33.748 11.1503 33.5485 11.1503C33.3455 11.1503 33.1376 11.1578 32.9257 11.1667V11.0414H32.9718C33.0665 11.0414 33.2295 11.0253 33.2295 10.9213C33.2295 10.8675 33.1917 10.7555 33.1454 10.6221L32.9842 10.1404H32.0416L31.9082 10.5726ZM32.5151 8.73249H32.5068L32.1201 9.90797H32.8971L32.5151 8.73249Z" fill="white"/>
<path d="M34.1206 11.1843C33.9337 11.1768 33.7472 11.1676 33.5489 11.1676C33.3464 11.1676 33.1386 11.1768 32.9267 11.1843L32.9083 11.1854V11.0236H32.9713C33.068 11.0236 33.2111 11.0011 33.2114 10.9214C33.2122 10.8741 33.1748 10.761 33.1285 10.6279L32.9707 10.1582H32.0544L31.9259 10.5778C31.8845 10.72 31.8349 10.8292 31.8358 10.8963C31.8358 10.9982 31.9912 11.0236 32.1286 11.0236H32.1919V11.1854L32.1735 11.1843C32.0074 11.1768 31.8375 11.1676 31.6723 11.1676C31.5235 11.1676 31.3743 11.1768 31.2246 11.1843L31.2064 11.1854V11.0236H31.2482C31.4031 11.023 31.5326 10.934 31.5931 10.7656L32.2576 8.8595C32.3106 8.70544 32.3854 8.49839 32.4222 8.33338C32.5527 8.28817 32.7193 8.20524 32.8 8.15452C32.8109 8.15078 32.8222 8.14589 32.8391 8.14589C32.8501 8.14473 32.8713 8.14732 32.8846 8.17007C32.897 8.20264 32.9091 8.24034 32.9229 8.27403L33.6864 10.4462C33.736 10.5919 33.7858 10.7454 33.8396 10.8689C33.8882 10.979 33.9639 11.0224 34.0964 11.0236H34.1396V11.1854L34.1206 11.1843ZM32.944 11.1477C33.1492 11.1399 33.3513 11.1318 33.5489 11.1318C33.742 11.1318 33.9231 11.1399 34.1039 11.1471L34.1033 11.0604H34.0964C33.9559 11.0607 33.8578 11.0054 33.8062 10.883C33.7515 10.7569 33.702 10.6028 33.6525 10.458L32.8883 8.28555C32.876 8.25243 32.8633 8.21471 32.8532 8.18649C32.8498 8.18131 32.8501 8.1813 32.8469 8.1813H32.8391C32.8305 8.1813 32.8258 8.18418 32.8158 8.18706C32.7349 8.23803 32.5685 8.32094 32.4456 8.35293C32.4199 8.51017 32.3445 8.71722 32.291 8.87128L31.6262 10.7776C31.5631 10.9579 31.4181 11.0607 31.2482 11.0604H31.2421V11.1471C31.3849 11.1399 31.5277 11.1318 31.6722 11.1318C31.8332 11.1318 31.997 11.1399 32.1568 11.1471V11.0604H32.1286C31.9936 11.0587 31.8041 11.044 31.7992 10.8963C31.8001 10.8139 31.8516 10.7082 31.8916 10.5674L31.9086 10.5729L31.8916 10.5668L32.0284 10.1228H32.9966L33.163 10.6163C33.2088 10.75 33.2465 10.8603 33.2465 10.9213C33.2404 11.0489 33.0663 11.0578 32.9712 11.0604H32.9439V11.1477H32.944ZM32.0958 9.92556L32.4939 8.71434H32.5155V8.73248L32.5112 8.73334L32.5155 8.73248V8.71434H32.5285L32.9209 9.92556H32.0958ZM32.1456 9.88982H32.8717L32.5106 8.7774L32.1456 9.88982ZM32.4983 8.73769L32.5066 8.73452L32.4983 8.73769ZM35.1685 10.7595C35.1685 10.9257 35.2837 10.9752 35.4167 10.9922C35.5869 11.0048 35.7737 11.0048 35.9655 10.9838C36.1393 10.9628 36.2891 10.8632 36.3633 10.7595C36.4295 10.6679 36.467 10.5516 36.492 10.4603H36.6124C36.5669 10.697 36.5087 10.9303 36.4586 11.1667C36.0941 11.1667 35.728 11.1503 35.3631 11.1503C34.9972 11.1503 34.6325 11.1667 34.2671 11.1667V11.0414H34.3241C34.4744 11.0414 34.6368 11.0213 34.6368 10.7635V8.6291C34.6368 8.41252 34.4744 8.3921 34.3241 8.3921H34.2671V8.26741C34.4865 8.26741 34.7027 8.28382 34.9224 8.28382C35.1348 8.28382 35.3422 8.26741 35.554 8.26741V8.3921H35.4495C35.2923 8.3921 35.1685 8.39671 35.1685 8.61614V10.7595Z" fill="white"/>
<path d="M36.4603 11.1843C36.0944 11.1843 35.7291 11.1676 35.3649 11.1676C34.9992 11.1676 34.6339 11.1843 34.268 11.1843H34.2504V11.0236H34.3258C34.4764 11.0202 34.6186 11.0098 34.6204 10.7636V8.62832C34.6186 8.42645 34.4772 8.41263 34.3258 8.40972H34.2504V8.24964H34.268C34.4888 8.24964 34.705 8.26548 34.9243 8.26548C35.1351 8.26548 35.3424 8.24964 35.5557 8.24964H35.5728V8.40972H35.4515C35.2906 8.41433 35.1904 8.40684 35.1872 8.61622V10.7596C35.1884 10.9142 35.2898 10.956 35.4193 10.9741C35.4927 10.9793 35.5696 10.9825 35.6496 10.9825C35.7512 10.9825 35.8569 10.9776 35.964 10.966C36.1333 10.9462 36.279 10.8486 36.3504 10.7495C36.4143 10.6608 36.4512 10.5468 36.4759 10.4561L36.4797 10.4423H36.636L36.6322 10.4641C36.5853 10.7017 36.5283 10.9338 36.4779 11.1702L36.4745 11.1844H36.4603V11.1843ZM36.4453 11.148C36.4934 10.9228 36.5479 10.7025 36.5925 10.4779H36.5072C36.4813 10.5683 36.4445 10.6798 36.3791 10.7705C36.3017 10.8782 36.1479 10.9795 35.968 11.0017C35.8592 11.0129 35.7515 11.0187 35.6496 11.0187C35.5693 11.0187 35.4913 11.0149 35.4161 11.0097C35.2811 10.9948 35.1501 10.9372 35.1507 10.7595V8.61617C35.1507 8.3855 35.2966 8.3737 35.4515 8.3737H35.5373V8.28558C35.3326 8.28673 35.1311 8.30196 34.9243 8.30196C34.7093 8.30196 34.4991 8.28673 34.286 8.28558V8.3737H34.3258C34.4741 8.3737 34.6554 8.39961 34.6554 8.62826V10.7635C34.6554 11.0322 34.4749 11.0602 34.3258 11.0602H34.286V11.148C34.6451 11.1477 35.0041 11.1321 35.3648 11.1321C35.7256 11.1321 36.0861 11.1477 36.4453 11.148ZM36.5637 8.14937C36.8138 8.14937 37.0007 8.34173 37.0007 8.58823C37.0007 8.83358 36.8139 9.02422 36.5637 9.02422C36.3135 9.02422 36.1263 8.83358 36.1263 8.58823C36.1263 8.34176 36.3134 8.14937 36.5637 8.14937ZM36.5637 8.94272C36.7591 8.94272 36.9094 8.7757 36.9094 8.58823C36.9094 8.39961 36.7614 8.23115 36.5637 8.23115C36.367 8.23115 36.2167 8.39964 36.2167 8.58823C36.2167 8.7757 36.367 8.94272 36.5637 8.94272ZM36.346 8.81861V8.79701C36.3998 8.78952 36.4096 8.79125 36.4096 8.75785V8.43417C36.4096 8.3887 36.4047 8.37315 36.348 8.37542V8.35325H36.5717C36.6489 8.35325 36.7194 8.38982 36.7194 8.4693C36.7194 8.53438 36.6762 8.58247 36.616 8.60119L36.6877 8.70138C36.7214 8.74687 36.7591 8.78952 36.7841 8.80447V8.81858H36.699C36.6581 8.81858 36.6224 8.73248 36.5417 8.617H36.4934V8.76243C36.4934 8.79122 36.5034 8.78949 36.5573 8.79698V8.81858H36.346V8.81861ZM36.4934 8.58823H36.5449C36.6013 8.58823 36.6278 8.54533 36.6278 8.4765C36.6278 8.40681 36.5869 8.38231 36.542 8.38231H36.4934V8.58823Z" fill="white"/>
</svg>
